<mxfile host="65bd71144e">
    <diagram name="Page-1" id="QoOHIskkyAhi5hr7oeFL">
        <mxGraphModel dx="317" dy="1547" grid="1" gridSize="10" guides="1" tooltips="1" connect="1" arrows="1" fold="1" page="1" pageScale="1" pageWidth="850" pageHeight="1100" math="0" shadow="0">
            <root>
                <mxCell id="0"/>
                <mxCell id="1" parent="0"/>
                <mxCell id="4K96Dp9RViYcou5PG820-3" value="Order" style="rhombus;whiteSpace=wrap;html=1;" parent="1" vertex="1">
                    <mxGeometry x="55" y="-1080" width="130" height="110" as="geometry"/>
                </mxCell>
                <mxCell id="4K96Dp9RViYcou5PG820-4" value="id" style="ellipse;whiteSpace=wrap;html=1;" parent="1" vertex="1">
                    <mxGeometry x="355" y="-925" width="95" height="60" as="geometry"/>
                </mxCell>
                <mxCell id="4K96Dp9RViYcou5PG820-5" value="Short Id&lt;br&gt;/human-readable/" style="ellipse;whiteSpace=wrap;html=1;" parent="1" vertex="1">
                    <mxGeometry x="340" y="-855" width="125" height="60" as="geometry"/>
                </mxCell>
                <mxCell id="4K96Dp9RViYcou5PG820-6" value="Description" style="ellipse;whiteSpace=wrap;html=1;" parent="1" vertex="1">
                    <mxGeometry x="352.51" y="-780" width="100" height="47.5" as="geometry"/>
                </mxCell>
                <mxCell id="4K96Dp9RViYcou5PG820-12" value="city" style="ellipse;whiteSpace=wrap;html=1;" parent="1" vertex="1">
                    <mxGeometry x="40" y="-790" width="100" height="60" as="geometry"/>
                </mxCell>
                <mxCell id="4K96Dp9RViYcou5PG820-13" value="status" style="ellipse;whiteSpace=wrap;html=1;" parent="1" vertex="1">
                    <mxGeometry x="355.01" y="-718.75" width="100" height="40" as="geometry"/>
                </mxCell>
                <mxCell id="4K96Dp9RViYcou5PG820-14" value="User Id" style="ellipse;whiteSpace=wrap;html=1;" parent="1" vertex="1">
                    <mxGeometry x="55" y="-920" width="80" height="50" as="geometry"/>
                </mxCell>
                <mxCell id="4K96Dp9RViYcou5PG820-15" value="User Name" style="ellipse;whiteSpace=wrap;html=1;" parent="1" vertex="1">
                    <mxGeometry x="40" y="-850" width="110" height="50" as="geometry"/>
                </mxCell>
                <mxCell id="4K96Dp9RViYcou5PG820-16" value="Paymernt Status" style="ellipse;whiteSpace=wrap;html=1;" parent="1" vertex="1">
                    <mxGeometry x="356.76" y="-477.5" width="112.5" height="50" as="geometry"/>
                </mxCell>
                <mxCell id="4K96Dp9RViYcou5PG820-21" value="Supplier Id" style="ellipse;whiteSpace=wrap;html=1;" parent="1" vertex="1">
                    <mxGeometry x="200" y="-920" width="93" height="50" as="geometry"/>
                </mxCell>
                <mxCell id="4K96Dp9RViYcou5PG820-22" value="Supplier info" style="ellipse;whiteSpace=wrap;html=1;" parent="1" vertex="1">
                    <mxGeometry x="206.5" y="-850" width="80" height="40" as="geometry"/>
                </mxCell>
                <mxCell id="4K96Dp9RViYcou5PG820-23" value="product title" style="ellipse;whiteSpace=wrap;html=1;" parent="1" vertex="1">
                    <mxGeometry x="635" y="-680.75" width="120" height="70" as="geometry"/>
                </mxCell>
                <mxCell id="4K96Dp9RViYcou5PG820-24" value="product price" style="ellipse;whiteSpace=wrap;html=1;" parent="1" vertex="1">
                    <mxGeometry x="635" y="-590.75" width="120" height="65" as="geometry"/>
                </mxCell>
                <mxCell id="4K96Dp9RViYcou5PG820-25" value="product quantity" style="ellipse;whiteSpace=wrap;html=1;" parent="1" vertex="1">
                    <mxGeometry x="635" y="-500.75" width="120" height="50" as="geometry"/>
                </mxCell>
                <mxCell id="4K96Dp9RViYcou5PG820-26" value="PaidAt" style="ellipse;whiteSpace=wrap;html=1;" parent="1" vertex="1">
                    <mxGeometry x="363.39" y="-417.5" width="95" height="40" as="geometry"/>
                </mxCell>
                <mxCell id="4K96Dp9RViYcou5PG820-27" value="product Id" style="ellipse;whiteSpace=wrap;html=1;" parent="1" vertex="1">
                    <mxGeometry x="640" y="-755.75" width="110" height="60" as="geometry"/>
                </mxCell>
                <mxCell id="4K96Dp9RViYcou5PG820-28" value="Supplier location" style="ellipse;whiteSpace=wrap;html=1;" parent="1" vertex="1">
                    <mxGeometry x="200" y="-790" width="95" height="55" as="geometry"/>
                </mxCell>
                <mxCell id="4K96Dp9RViYcou5PG820-29" value="CreatedAt" style="ellipse;whiteSpace=wrap;html=1;" parent="1" vertex="1">
                    <mxGeometry x="370.64" y="-367.5" width="87" height="50" as="geometry"/>
                </mxCell>
                <mxCell id="4K96Dp9RViYcou5PG820-30" value="UpdatedAt" style="ellipse;whiteSpace=wrap;html=1;" parent="1" vertex="1">
                    <mxGeometry x="369.51" y="-305" width="87" height="50" as="geometry"/>
                </mxCell>
                <mxCell id="4K96Dp9RViYcou5PG820-31" value="district" style="ellipse;whiteSpace=wrap;html=1;" parent="1" vertex="1">
                    <mxGeometry x="40" y="-715" width="100" height="60" as="geometry"/>
                </mxCell>
                <mxCell id="4K96Dp9RViYcou5PG820-32" value="street" style="ellipse;whiteSpace=wrap;html=1;" parent="1" vertex="1">
                    <mxGeometry x="36" y="-635" width="100" height="60" as="geometry"/>
                </mxCell>
                <mxCell id="4K96Dp9RViYcou5PG820-33" style="edgeStyle=orthogonalEdgeStyle;rounded=0;orthogonalLoop=1;jettySize=auto;html=1;exitX=0.5;exitY=1;exitDx=0;exitDy=0;" parent="1" source="4K96Dp9RViYcou5PG820-26" target="4K96Dp9RViYcou5PG820-26" edge="1">
                    <mxGeometry relative="1" as="geometry"/>
                </mxCell>
                <mxCell id="4K96Dp9RViYcou5PG820-34" value="address" style="ellipse;whiteSpace=wrap;html=1;" parent="1" vertex="1">
                    <mxGeometry x="37" y="-565" width="100" height="60" as="geometry"/>
                </mxCell>
                <mxCell id="4K96Dp9RViYcou5PG820-35" value="Additional&lt;br&gt;info" style="ellipse;whiteSpace=wrap;html=1;" parent="1" vertex="1">
                    <mxGeometry x="41" y="-365" width="97.5" height="60" as="geometry"/>
                </mxCell>
                <mxCell id="4K96Dp9RViYcou5PG820-36" value="contact phone" style="ellipse;whiteSpace=wrap;html=1;" parent="1" vertex="1">
                    <mxGeometry x="45" y="-495" width="85" height="50" as="geometry"/>
                </mxCell>
                <mxCell id="4K96Dp9RViYcou5PG820-38" value="contact email" style="ellipse;whiteSpace=wrap;html=1;" parent="1" vertex="1">
                    <mxGeometry x="45" y="-425" width="85" height="50" as="geometry"/>
                </mxCell>
                <mxCell id="4K96Dp9RViYcou5PG820-39" value="Goods" style="rhombus;whiteSpace=wrap;html=1;" parent="1" vertex="1">
                    <mxGeometry x="635" y="-1070" width="120" height="80" as="geometry"/>
                </mxCell>
                <mxCell id="4K96Dp9RViYcou5PG820-41" value="Order Id" style="ellipse;whiteSpace=wrap;html=1;" parent="1" vertex="1">
                    <mxGeometry x="635" y="-853.25" width="120" height="80" as="geometry"/>
                </mxCell>
                <mxCell id="4K96Dp9RViYcou5PG820-43" value="" style="endArrow=none;dashed=1;html=1;dashPattern=1 3;strokeWidth=2;rounded=0;" parent="1" edge="1">
                    <mxGeometry width="50" height="50" relative="1" as="geometry">
                        <mxPoint x="550" y="-280" as="sourcePoint"/>
                        <mxPoint x="550" y="-1090" as="targetPoint"/>
                    </mxGeometry>
                </mxCell>
                <mxCell id="4K96Dp9RViYcou5PG820-45" value="Id" style="ellipse;whiteSpace=wrap;html=1;" parent="1" vertex="1">
                    <mxGeometry x="645" y="-927" width="100" height="60" as="geometry"/>
                </mxCell>
                <mxCell id="4K96Dp9RViYcou5PG820-46" value="totalPrice" style="ellipse;whiteSpace=wrap;html=1;" parent="1" vertex="1">
                    <mxGeometry x="358.39" y="-542.5" width="101.75" height="50" as="geometry"/>
                </mxCell>
                <mxCell id="4K96Dp9RViYcou5PG820-47" value="totalProductPrice" style="ellipse;whiteSpace=wrap;html=1;" parent="1" vertex="1">
                    <mxGeometry x="358.14" y="-670.75" width="101.75" height="50" as="geometry"/>
                </mxCell>
                <mxCell id="4K96Dp9RViYcou5PG820-48" value="totalDeliveryPrice" style="ellipse;whiteSpace=wrap;html=1;" parent="1" vertex="1">
                    <mxGeometry x="352.51" y="-610.75" width="116.75" height="55.75" as="geometry"/>
                </mxCell>
                <mxCell id="4K96Dp9RViYcou5PG820-49" value="totalPrice" style="ellipse;whiteSpace=wrap;html=1;" parent="1" vertex="1">
                    <mxGeometry x="640" y="-305" width="120" height="55" as="geometry"/>
                </mxCell>
                <mxCell id="4K96Dp9RViYcou5PG820-52" value="Track" style="rhombus;whiteSpace=wrap;html=1;" parent="1" vertex="1">
                    <mxGeometry x="41" y="10" width="170" height="110" as="geometry"/>
                </mxCell>
                <mxCell id="4K96Dp9RViYcou5PG820-53" value="id" style="ellipse;whiteSpace=wrap;html=1;" parent="1" vertex="1">
                    <mxGeometry x="80" y="150" width="93" height="50" as="geometry"/>
                </mxCell>
                <mxCell id="4K96Dp9RViYcou5PG820-55" value="cargo name" style="ellipse;whiteSpace=wrap;html=1;" parent="1" vertex="1">
                    <mxGeometry x="87" y="210" width="75" height="50" as="geometry"/>
                </mxCell>
                <mxCell id="4K96Dp9RViYcou5PG820-57" value="Actor" style="shape=umlActor;verticalLabelPosition=bottom;verticalAlign=top;html=1;outlineConnect=0;" parent="1" vertex="1">
                    <mxGeometry x="87" y="770" width="30" height="60" as="geometry"/>
                </mxCell>
                <mxCell id="4K96Dp9RViYcou5PG820-70" style="edgeStyle=orthogonalEdgeStyle;rounded=0;orthogonalLoop=1;jettySize=auto;html=1;entryX=0.533;entryY=0.975;entryDx=0;entryDy=0;entryPerimeter=0;" parent="1" source="4K96Dp9RViYcou5PG820-60" target="4K96Dp9RViYcou5PG820-67" edge="1">
                    <mxGeometry relative="1" as="geometry"/>
                </mxCell>
                <mxCell id="4K96Dp9RViYcou5PG820-60" value="Domestic&lt;br&gt;Supplier" style="verticalLabelPosition=bottom;html=1;verticalAlign=top;align=center;strokeColor=none;fillColor=#00BEF2;shape=mxgraph.azure.azure_marketplace;" parent="1" vertex="1">
                    <mxGeometry x="468" y="880" width="40" height="50" as="geometry"/>
                </mxCell>
                <mxCell id="4K96Dp9RViYcou5PG820-69" style="edgeStyle=orthogonalEdgeStyle;rounded=0;orthogonalLoop=1;jettySize=auto;html=1;" parent="1" source="4K96Dp9RViYcou5PG820-61" target="4K96Dp9RViYcou5PG820-64" edge="1">
                    <mxGeometry relative="1" as="geometry"/>
                </mxCell>
                <mxCell id="4K96Dp9RViYcou5PG820-61" value="International&lt;br&gt;Supplier" style="verticalLabelPosition=bottom;html=1;verticalAlign=top;align=center;strokeColor=none;fillColor=#00BEF2;shape=mxgraph.azure.azure_marketplace;" parent="1" vertex="1">
                    <mxGeometry x="634" y="665" width="40" height="50" as="geometry"/>
                </mxCell>
                <mxCell id="4K96Dp9RViYcou5PG820-68" style="edgeStyle=orthogonalEdgeStyle;rounded=0;orthogonalLoop=1;jettySize=auto;html=1;entryX=0;entryY=0;entryDx=50;entryDy=0;entryPerimeter=0;" parent="1" source="NIzvuLRNOBZ0G3OtHSEq-1" target="4K96Dp9RViYcou5PG820-67" edge="1">
                    <mxGeometry relative="1" as="geometry"/>
                </mxCell>
                <mxCell id="4K96Dp9RViYcou5PG820-64" value="3rd Tracker" style="sketch=0;outlineConnect=0;fontColor=#232F3E;gradientColor=none;strokeColor=#232F3E;fillColor=#ffffff;dashed=0;verticalLabelPosition=bottom;verticalAlign=top;align=center;html=1;fontSize=12;fontStyle=0;aspect=fixed;shape=mxgraph.aws4.resourceIcon;resIcon=mxgraph.aws4.apps;" parent="1" vertex="1">
                    <mxGeometry x="465" y="660" width="60" height="60" as="geometry"/>
                </mxCell>
                <mxCell id="4K96Dp9RViYcou5PG820-67" value="Server" style="shape=cube;whiteSpace=wrap;html=1;boundedLbl=1;backgroundOutline=1;darkOpacity=0.05;darkOpacity2=0.1;" parent="1" vertex="1">
                    <mxGeometry x="258" y="780" width="120" height="80" as="geometry"/>
                </mxCell>
                <mxCell id="4K96Dp9RViYcou5PG820-72" value="" style="shape=flexArrow;endArrow=classic;html=1;rounded=0;" parent="1" edge="1">
                    <mxGeometry width="50" height="50" relative="1" as="geometry">
                        <mxPoint x="241" y="809.5" as="sourcePoint"/>
                        <mxPoint x="131" y="809.5" as="targetPoint"/>
                    </mxGeometry>
                </mxCell>
                <mxCell id="4K96Dp9RViYcou5PG820-75" value="trackId" style="ellipse;whiteSpace=wrap;html=1;" parent="1" vertex="1">
                    <mxGeometry x="485.5" y="130" width="80" height="40" as="geometry"/>
                </mxCell>
                <mxCell id="4K96Dp9RViYcou5PG820-76" value="track_logs" style="rhombus;whiteSpace=wrap;html=1;" parent="1" vertex="1">
                    <mxGeometry x="461" y="25" width="129" height="80" as="geometry"/>
                </mxCell>
                <mxCell id="4K96Dp9RViYcou5PG820-77" value="status" style="ellipse;whiteSpace=wrap;html=1;" parent="1" vertex="1">
                    <mxGeometry x="87" y="420" width="72.75" height="40" as="geometry"/>
                </mxCell>
                <mxCell id="4K96Dp9RViYcou5PG820-78" value="recived" style="text;html=1;strokeColor=none;fillColor=none;align=center;verticalAlign=middle;whiteSpace=wrap;rounded=0;" parent="1" vertex="1">
                    <mxGeometry x="173.38" y="425" width="60" height="30" as="geometry"/>
                </mxCell>
                <mxCell id="4K96Dp9RViYcou5PG820-79" value="returned" style="text;html=1;strokeColor=none;fillColor=none;align=center;verticalAlign=middle;whiteSpace=wrap;rounded=0;" parent="1" vertex="1">
                    <mxGeometry x="230.38" y="425" width="60" height="30" as="geometry"/>
                </mxCell>
                <mxCell id="4K96Dp9RViYcou5PG820-82" value="waiting" style="text;html=1;strokeColor=none;fillColor=none;align=center;verticalAlign=middle;whiteSpace=wrap;rounded=0;" parent="1" vertex="1">
                    <mxGeometry x="290.38" y="425" width="60" height="30" as="geometry"/>
                </mxCell>
                <mxCell id="4K96Dp9RViYcou5PG820-83" value="shipped" style="text;html=1;strokeColor=none;fillColor=none;align=center;verticalAlign=middle;whiteSpace=wrap;rounded=0;" parent="1" vertex="1">
                    <mxGeometry x="350.38" y="425" width="60" height="30" as="geometry"/>
                </mxCell>
                <mxCell id="4K96Dp9RViYcou5PG820-85" value="location" style="ellipse;whiteSpace=wrap;html=1;" parent="1" vertex="1">
                    <mxGeometry x="86.38" y="470" width="80" height="40" as="geometry"/>
                </mxCell>
                <mxCell id="4K96Dp9RViYcou5PG820-86" value="recivedAt" style="ellipse;whiteSpace=wrap;html=1;" parent="1" vertex="1">
                    <mxGeometry x="83.25" y="320" width="85.5" height="40" as="geometry"/>
                </mxCell>
                <mxCell id="4K96Dp9RViYcou5PG820-87" value="shippedAt" style="ellipse;whiteSpace=wrap;html=1;" parent="1" vertex="1">
                    <mxGeometry x="83.25" y="370" width="85.5" height="40" as="geometry"/>
                </mxCell>
                <mxCell id="bv8WOpvVgMwsRUOsUWtB-1" value="detailLink" style="ellipse;whiteSpace=wrap;html=1;" parent="1" vertex="1">
                    <mxGeometry x="89.63" y="520" width="74.5" height="40" as="geometry"/>
                </mxCell>
                <mxCell id="bv8WOpvVgMwsRUOsUWtB-2" value="null&amp;nbsp;" style="text;html=1;strokeColor=none;fillColor=none;align=center;verticalAlign=middle;whiteSpace=wrap;rounded=0;" parent="1" vertex="1">
                    <mxGeometry x="167.51" y="525" width="60" height="30" as="geometry"/>
                </mxCell>
                <mxCell id="bv8WOpvVgMwsRUOsUWtB-3" value="https://t.17track.net/en#nums=" style="text;html=1;strokeColor=none;fillColor=none;align=center;verticalAlign=middle;whiteSpace=wrap;rounded=0;" parent="1" vertex="1">
                    <mxGeometry x="230.38" y="525" width="187.49" height="30" as="geometry"/>
                </mxCell>
                <mxCell id="RpByvy5BfsT3Z9_CL1Tm-2" value="description" style="ellipse;whiteSpace=wrap;html=1;" parent="1" vertex="1">
                    <mxGeometry x="487" y="180" width="77" height="40" as="geometry"/>
                </mxCell>
                <mxCell id="RpByvy5BfsT3Z9_CL1Tm-4" value="action" style="ellipse;whiteSpace=wrap;html=1;" parent="1" vertex="1">
                    <mxGeometry x="488" y="230" width="75" height="40" as="geometry"/>
                </mxCell>
                <mxCell id="RpByvy5BfsT3Z9_CL1Tm-5" value="createdAt" style="ellipse;whiteSpace=wrap;html=1;" parent="1" vertex="1">
                    <mxGeometry x="488" y="280" width="75" height="40" as="geometry"/>
                </mxCell>
                <mxCell id="RpByvy5BfsT3Z9_CL1Tm-6" value="orderId" style="ellipse;whiteSpace=wrap;html=1;" parent="1" vertex="1">
                    <mxGeometry x="89" y="571" width="80" height="40" as="geometry"/>
                </mxCell>
                <mxCell id="NIzvuLRNOBZ0G3OtHSEq-2" value="" style="edgeStyle=orthogonalEdgeStyle;rounded=0;orthogonalLoop=1;jettySize=auto;html=1;entryX=0;entryY=0;entryDx=50;entryDy=0;entryPerimeter=0;" parent="1" source="4K96Dp9RViYcou5PG820-64" target="NIzvuLRNOBZ0G3OtHSEq-1" edge="1">
                    <mxGeometry relative="1" as="geometry">
                        <mxPoint x="458" y="740" as="sourcePoint"/>
                        <mxPoint x="308" y="780" as="targetPoint"/>
                    </mxGeometry>
                </mxCell>
                <mxCell id="NIzvuLRNOBZ0G3OtHSEq-1" value="detailLink" style="text;html=1;strokeColor=none;fillColor=none;align=center;verticalAlign=middle;whiteSpace=wrap;rounded=0;" parent="1" vertex="1">
                    <mxGeometry x="303.39" y="715" width="60" height="30" as="geometry"/>
                </mxCell>
                <mxCell id="2" value="product detail" style="ellipse;whiteSpace=wrap;html=1;" parent="1" vertex="1">
                    <mxGeometry x="635" y="-440" width="120" height="50" as="geometry"/>
                </mxCell>
                <mxCell id="3" value="product Url" style="ellipse;whiteSpace=wrap;html=1;" parent="1" vertex="1">
                    <mxGeometry x="635" y="-375" width="120" height="50" as="geometry"/>
                </mxCell>
            </root>
        </mxGraphModel>
    </diagram>
</mxfile>